<svg xmlns="http://www.w3.org/2000/svg" viewBox="0 0 55.17 51.96"><defs><style>.cls-1{fill:#fff;}.cls-2{fill:#b8b8b8;}.cls-3{fill:#1f3049;}.cls-4{fill:#e6ca56;}.cls-5{fill:#fbf2c9;}.cls-6{fill:#75a897;}.cls-7{fill:#d06b5b;}.cls-8{fill:#e09e9a;}</style></defs><g id="Слой_2" data-name="Слой 2"><g id="Режим_изоляции" data-name="Режим изоляции"><rect class="cls-1" width="55.17" height="41.22" rx="1.2"/><rect class="cls-2" x="17.22" y="40.08" width="20.73" height="6.99"/><rect class="cls-3" x="2.96" y="2.46" width="49.25" height="30.5"/><path class="cls-1" d="M0,32V40a1.2,1.2,0,0,0,1.2,1.2H54a1.2,1.2,0,0,0,1.2-1.2V32Z"/><path class="cls-1" d="M43.08,52V49.71a3,3,0,0,0-3-3h-25a3,3,0,0,0-3,3V52Z"/><path class="cls-3" d="M29.11,36.27a1.53,1.53,0,1,1-1.53-1.52A1.53,1.53,0,0,1,29.11,36.27Z"/><polygon class="cls-4" points="42.48 15.89 31.02 15.89 31.02 4.43 38.75 4.43 42.48 7.92 42.48 15.89"/><polygon class="cls-5" points="42.48 7.92 38.75 7.92 38.75 4.43 42.48 7.92"/><rect class="cls-6" x="32.72" y="7.05" width="5.49" height="0.96"/><rect class="cls-6" x="32.72" y="9.71" width="8.06" height="0.96"/><rect class="cls-6" x="32.72" y="12.37" width="8.06" height="0.96"/><polygon class="cls-7" points="25.79 30.34 14.33 30.34 14.33 18.88 22.05 18.88 25.79 22.37 25.79 30.34"/><polygon class="cls-8" points="25.79 22.37 22.06 22.37 22.06 18.88 25.79 22.37"/><rect class="cls-8" x="16.03" y="21.5" width="5.49" height="0.96"/><rect class="cls-8" x="16.03" y="24.16" width="8.06" height="0.95"/><rect class="cls-8" x="16.03" y="26.82" width="8.06" height="0.96"/><path class="cls-7" d="M16.73,17.73h-1v-9a2.5,2.5,0,0,1,2.5-2.5h9.13v1H18.23a1.5,1.5,0,0,0-1.5,1.5Z"/><polygon class="cls-7" points="27 9.04 29.46 6.73 27 4.43 27 9.04"/><path class="cls-4" d="M40,17.22h1V26a2.5,2.5,0,0,1-2.5,2.5H29.34v-1h9.12A1.5,1.5,0,0,0,40,26Z"/><polygon class="cls-4" points="29.7 25.73 27.23 28.04 29.7 30.34 29.7 25.73"/></g></g></svg>