<svg xmlns="http://www.w3.org/2000/svg" viewBox="0 0 55.2 51.9"><defs><style>.cls-1{fill:#0c2c48;}.cls-2{fill:#bababa;}.cls-3{fill:#a3b9c4;}.cls-4{fill:#fff;}.cls-5{fill:#59c5ef;}.cls-6{fill:#2ba0bf;}.cls-7{fill:#e2e2e2;}.cls-8{fill:#ffbd66;}</style></defs><g id="Слой_2" data-name="Слой 2"><g id="Layer_2" data-name="Layer 2"><path class="cls-1" d="M55.1,40a1.16,1.16,0,0,1-1.2,1.2H1.2A1.16,1.16,0,0,1,0,40V1.2A1.16,1.16,0,0,1,1.2,0H54a1.16,1.16,0,0,1,1.2,1.2V40Z"/><rect class="cls-2" x="17.2" y="40.1" width="20.7" height="7"/><rect class="cls-3" x="2.9" y="2.4" width="49.2" height="30.5"/><path class="cls-4" d="M0,31.9V40a1.16,1.16,0,0,0,1.2,1.2H54A1.16,1.16,0,0,0,55.2,40V31.9Z"/><path class="cls-4" d="M43.1,51.9V49.7a3,3,0,0,0-3-3h-25a3,3,0,0,0-3,3v2.2Z"/><circle class="cls-1" cx="27.6" cy="36.3" r="1.5"/><path class="cls-5" d="M16.37,16.85l3,10.3a1.52,1.52,0,0,0,1.46,1.1H34a1.51,1.51,0,0,0,1.46-1.1l3-10.3Z"/><rect class="cls-6" x="15.23" y="13.81" width="24.32" height="3.04" rx="0.76"/><path class="cls-7" d="M24.24,18.75H22.48a1,1,0,0,0-1,1.21l.94,5.52a1,1,0,0,0,1,.87h1.16a1,1,0,0,0,1-1.1l-.33-5.52A1,1,0,0,0,24.24,18.75Z"/><path class="cls-7" d="M32.29,18.75H30.53a1,1,0,0,0-1,1l-.32,5.52a1,1,0,0,0,1,1.1h1.16a1.05,1.05,0,0,0,1-.87L33.32,20A1,1,0,0,0,32.29,18.75Z"/><path class="cls-8" d="M37.4,15.09,33.63,8.8a1.58,1.58,0,0,0,.42-1.07,1.62,1.62,0,1,0-1.62,1.62,1.67,1.67,0,0,0,.39-.06l3.76,6.28a.48.48,0,0,0,.41.23.54.54,0,0,0,.25-.06A.48.48,0,0,0,37.4,15.09ZM31.77,7.73a.67.67,0,0,1,1.33,0,.67.67,0,1,1-1.33,0Z"/><path class="cls-8" d="M22.34,6.12a1.61,1.61,0,0,0-1.2,2.68l-3.77,6.29a.48.48,0,0,0,.17.65.5.5,0,0,0,.24.06.48.48,0,0,0,.41-.23L22,9.29a1.59,1.59,0,0,0,.38.06,1.62,1.62,0,1,0,0-3.23Zm0,2.28a.66.66,0,0,1-.66-.67.65.65,0,0,1,.66-.66.66.66,0,0,1,.67.66A.67.67,0,0,1,22.34,8.4Z"/></g></g></svg>