<svg xmlns="http://www.w3.org/2000/svg" viewBox="0 0 56.99 53.55"><defs><style>.cls-1{fill:#1f3049;}.cls-2{fill:#b8b8b8;}.cls-3{fill:#fff;}.cls-4{fill:#87b7dd;}.cls-5{fill:#a3a5aa;}.cls-6{fill:#d06b5b;}</style></defs><g id="Слой_2" data-name="Слой 2"><g id="Режим_изоляции" data-name="Режим изоляции"><rect class="cls-1" width="51.45" height="38.45" rx="1.12"/><rect class="cls-2" x="16.06" y="37.38" width="19.33" height="6.52"/><path class="cls-3" d="M40.18,48.46v-2.1a2.8,2.8,0,0,0-2.8-2.8H14.07a2.8,2.8,0,0,0-2.8,2.8v2.1Z"/><rect class="cls-3" x="2.76" y="2.29" width="45.93" height="28.45"/><rect class="cls-4" x="2.76" y="2.29" width="45.93" height="5.44"/><path class="cls-3" d="M0,29.8v7.52a1.13,1.13,0,0,0,1.12,1.13H50.33a1.13,1.13,0,0,0,1.12-1.13V29.8Z"/><path class="cls-1" d="M27.15,33.83a1.43,1.43,0,1,1-1.42-1.42A1.42,1.42,0,0,1,27.15,33.83Z"/><path class="cls-3" d="M5.82,4.83a.67.67,0,0,1,.67-.71.65.65,0,0,1,.66.71.67.67,0,1,1-1.33,0Z"/><path class="cls-3" d="M8.13,4.83a.68.68,0,0,1,.68-.71.65.65,0,0,1,.65.71.67.67,0,1,1-1.33,0Z"/><path class="cls-3" d="M10.45,4.83a.67.67,0,0,1,.67-.71.65.65,0,0,1,.66.71.67.67,0,1,1-1.33,0Z"/><path class="cls-1" d="M49.16,30H2.29V1.83H49.16ZM3.23,29.11h45V2.76h-45Z"/><rect class="cls-4" x="5.09" y="9.75" width="10.73" height="17.33"/><rect class="cls-4" x="19.19" y="9.75" width="25.94" height="2.8"/><rect class="cls-5" x="19.19" y="14.81" width="25.52" height="1.33"/><rect class="cls-5" x="19.19" y="17.76" width="25.52" height="1.33"/><rect class="cls-5" x="19.19" y="20.71" width="20.63" height="1.33"/><rect class="cls-5" x="19.19" y="23.67" width="17.01" height="1.32"/><path class="cls-6" d="M54.81,53.55H35.71a2.19,2.19,0,0,1-2.19-2.19V16.63a2.19,2.19,0,0,1,2.19-2.19h19.1A2.19,2.19,0,0,1,57,16.63V51.36A2.19,2.19,0,0,1,54.81,53.55ZM36.59,50.48H53.93v-33H36.59Z"/><rect class="cls-1" x="35.06" y="15.97" width="20.4" height="36.04" rx="0.65"/><rect class="cls-3" x="36.38" y="19.8" width="17.76" height="28.24"/><path class="cls-3" d="M46.52,50a1.26,1.26,0,1,1-1.26-1.26A1.26,1.26,0,0,1,46.52,50Z"/><rect class="cls-4" x="36.38" y="19.8" width="17.76" height="4.67"/><rect class="cls-4" x="36.38" y="45.27" width="17.76" height="2.76"/><rect class="cls-5" x="39.12" y="27.85" width="12.43" height="1.56"/><rect class="cls-5" x="39.12" y="31.33" width="12.43" height="1.57"/><rect class="cls-5" x="39.12" y="34.82" width="10.05" height="1.56"/><rect class="cls-5" x="39.12" y="38.31" width="8.29" height="1.56"/><path class="cls-3" d="M41.86,22.16a.76.76,0,0,1,.76-.81.81.81,0,1,1-.76.81Z"/><path class="cls-3" d="M44.5,22.16a.77.77,0,0,1,.76-.81.81.81,0,1,1-.76.81Z"/><path class="cls-3" d="M47.14,22.16a.77.77,0,0,1,.77-.81.75.75,0,0,1,.75.81.76.76,0,0,1-.78.8A.75.75,0,0,1,47.14,22.16Z"/></g></g></svg>