<svg xmlns="http://www.w3.org/2000/svg" viewBox="0 0 55.17 51.96"><defs><style>.cls-1{fill:#57646e;}.cls-2{fill:#b8b8b8;}.cls-3{fill:#71818e;}.cls-4,.cls-6{fill:#fff;}.cls-5{fill:#1f3049;}.cls-6{opacity:0.41;}</style></defs><g id="Слой_2" data-name="Слой 2"><g id="Режим_изоляции" data-name="Режим изоляции"><rect class="cls-1" width="55.17" height="41.22" rx="1.2"/><rect class="cls-2" x="17.22" y="40.08" width="20.73" height="6.99"/><rect class="cls-3" x="2.96" y="2.46" width="49.25" height="30.5"/><path class="cls-4" d="M0,32V40a1.2,1.2,0,0,0,1.2,1.2H54a1.2,1.2,0,0,0,1.2-1.2V32Z"/><path class="cls-4" d="M43.08,52V49.71a3,3,0,0,0-3-3h-25a3,3,0,0,0-3,3V52Z"/><path class="cls-5" d="M29.11,36.27a1.53,1.53,0,1,1-1.53-1.52A1.53,1.53,0,0,1,29.11,36.27Z"/><path class="cls-6" d="M42.49,6.27V5.68h-5.8V3.92H36.1V5.68H29.71V3.92h-.59V5.68H22.74V3.92h-.6V5.68H15.76V3.92h-.59V5.68H9.37v.59h5.8v5.36H9.37v.59h5.8v5.36H9.37v.59h5.8v5.35H9.37v.6h5.8v3.13h.59V24.12h6.38v3.13h.6V24.12h6.38v3.13h.59V24.12H36.1v3.13h.59V24.12h5.8v-.6h-5.8V18.17h5.8v-.59h-5.8V12.22h5.8v-.59h-5.8V6.27Zm-13.37,0v5.36H22.74V6.27Zm0,6v5.36H22.74V12.22Zm-13.36-6h6.38v5.36H15.76Zm0,6h6.38v5.36H15.76Zm0,11.3V18.17h6.38v5.35Zm7,0V18.17h6.38v5.35Zm13.36,0H29.71V18.17H36.1Zm0-5.94H29.71V12.22H36.1Zm0-5.95H29.71V6.27H36.1Z"/><polygon class="cls-5" points="39.17 9.55 40.34 10.73 35.08 16.19 29.54 12.41 23.82 19.73 16.58 12.38 13.37 20.75 9.53 15.37 8.21 16.46 13.91 24.09 17.23 15.46 23.97 22.31 29.9 14.72 35.31 18.41 41.55 11.93 43.03 13.41 43.41 8.39 39.17 9.55"/><path class="cls-3" d="M14,24.84,7.71,16.4,9.6,14.85,13.28,20l3.17-8.27,7.34,7.46,5.67-7.26L35,15.72l4.8-5L38.47,9.37l5.34-1.46-.48,6.31-1.78-1.77-6.19,6.43L30,15.21l-6,7.65-6.64-6.74ZM8.71,16.52l5.1,6.83,3.28-8.55,6.85,7,5.88-7.53,5.44,3.7,6.28-6.52,1.18,1.18L43,8.88l-3.14.86,1,1-5.72,5.94-5.51-3.75-5.77,7.37L16.72,13l-3.25,8.48-4-5.61Z"/><rect class="cls-5" x="7.31" y="5.86" width="0.86" height="24.39"/><rect class="cls-5" x="5.58" y="27.37" width="42.67" height="0.86"/><polygon class="cls-5" points="9.6 8.74 7.81 5.76 6.02 8.74 5.28 8.3 7.81 4.08 10.34 8.3 9.6 8.74"/><polygon class="cls-5" points="45.67 30.4 45.23 29.66 48.21 27.87 45.23 26.08 45.67 25.34 49.88 27.87 45.67 30.4"/></g></g></svg>