<svg xmlns="http://www.w3.org/2000/svg" viewBox="0 0 55.17 51.96"><defs><style>.cls-1{fill:#1f3049;}.cls-2{fill:#b8b8b8;}.cls-3{fill:#fff;}.cls-4{fill:#57646e;}.cls-5{fill:#e29e6f;}.cls-6{fill:#f2d1b4;}.cls-7{fill:#c87d4a;}.cls-8{fill:#e58d8d;}.cls-9{fill:#b1cfd7;}.cls-10{fill:#6c8083;}</style></defs><g id="Слой_2" data-name="Слой 2"><g id="Режим_изоляции" data-name="Режим изоляции"><rect class="cls-1" width="55.17" height="41.22" rx="1.2"/><rect class="cls-2" x="17.22" y="40.08" width="20.73" height="6.99"/><path class="cls-3" d="M43.08,52V49.71a3,3,0,0,0-3-3h-25a3,3,0,0,0-3,3V52Z"/><rect class="cls-4" x="2.96" y="2.46" width="49.25" height="30.5"/><rect class="cls-5" x="2.96" y="2.46" width="49.25" height="5.83"/><path class="cls-3" d="M0,32V40a1.2,1.2,0,0,0,1.2,1.2H54a1.2,1.2,0,0,0,1.2-1.2V32Z"/><path class="cls-1" d="M29.11,36.27a1.53,1.53,0,1,1-1.53-1.52A1.53,1.53,0,0,1,29.11,36.27Z"/><polygon class="cls-6" points="36.03 14.54 39.03 8.77 33.28 11.79 36.03 14.54"/><polygon class="cls-1" points="37.84 11.04 39.01 8.79 36.76 9.97 37.84 11.04"/><path class="cls-7" d="M36.05,13.6a.71.71,0,0,0-.94.07l0,0a.71.71,0,0,0,.07-1,.73.73,0,0,0-.94.08l0,0a.71.71,0,0,0,.08-.94.71.71,0,0,0-.94.08l0,0-15.89,16a.63.63,0,0,0-.12.86l2,2a.63.63,0,0,0,.86-.12L36,14.56l0,0A.71.71,0,0,0,36.05,13.6Z"/><path class="cls-8" d="M18.94,26.2l-1.57,1.58a.63.63,0,0,0-.12.86l2,2a.63.63,0,0,0,.86-.12l1.57-1.58Z"/><rect class="cls-9" x="19.15" y="24.03" width="5.27" height="4.12" transform="translate(-12.07 23.11) rotate(-45.12)"/><rect class="cls-10" x="20.6" y="25.05" width="0.36" height="4.1" transform="translate(-13.08 22.7) rotate(-45.11)"/><rect class="cls-10" x="21.6" y="24.04" width="0.36" height="4.1" transform="translate(-12.07 23.11) rotate(-45.12)"/><polygon class="cls-10" points="21.47 23.5 24.37 26.39 24.12 26.65 21.21 23.76 21.47 23.5"/><path class="cls-1" d="M52.71,8.46H2.46V1.62H52.71Zm-49.25-1H51.71V2.62H3.46Z"/></g></g></svg>