<svg xmlns="http://www.w3.org/2000/svg" viewBox="0 0 55.17 51.96"><defs><style>.cls-1{fill:#1f3049;}.cls-2{fill:#b8b8b8;}.cls-3{fill:#a7b7c1;}.cls-4{fill:#fff;}.cls-5{fill:#57646e;}.cls-6{fill:#d06b5b;}</style></defs><g id="Слой_2" data-name="Слой 2"><g id="Режим_изоляции" data-name="Режим изоляции"><rect class="cls-1" width="55.17" height="41.22" rx="1.2"/><rect class="cls-2" x="17.22" y="40.08" width="20.73" height="6.99"/><rect class="cls-3" x="2.96" y="2.46" width="49.25" height="30.5"/><path class="cls-4" d="M0,32V40a1.2,1.2,0,0,0,1.2,1.2H54a1.2,1.2,0,0,0,1.2-1.2V32Z"/><path class="cls-4" d="M43.08,52V49.71a3,3,0,0,0-3-3h-25a3,3,0,0,0-3,3V52Z"/><path class="cls-1" d="M29.11,36.27a1.53,1.53,0,1,1-1.53-1.52A1.53,1.53,0,0,1,29.11,36.27Z"/><path class="cls-4" d="M20.17,22l-9.3-4.24V16.17l9.3-4.45v2.37l-6.63,2.84V17l6.63,2.67Z"/><path class="cls-5" d="M32,8.37,25,25h-2.8L29.17,8.37Z"/><path class="cls-6" d="M43.65,17.66,34.34,21.9V19.54L41,16.88v0L34.34,14V11.62L43.65,16Z"/></g></g></svg>