<svg xmlns="http://www.w3.org/2000/svg" viewBox="0 0 2452.29 1667.96"><defs><style>.cls-1{fill:#c94838;}</style></defs><g id="Слой_2" data-name="Слой 2"><g id="Layer_1" data-name="Layer 1"><path class="cls-1" d="M1522.56,1668a37.78,37.78,0,0,1-32.39-18.34l-285.53-476.17-533.43,145A37.74,37.74,0,0,1,628,1299.79L4.41,126.77a37.75,37.75,0,0,1,28.3-55.13L562.6.34a37.75,37.75,0,0,1,37.41,18l640,1067.25,743.29-202.12L1735,533.55A37.75,37.75,0,0,1,1757.14,475l347.78-82.13A37.74,37.74,0,0,1,2143.07,406L2444,781.72a37.75,37.75,0,0,1-19.56,60l-317,86.21,276.4,389.6A37.73,37.73,0,0,1,2365.5,1375L1535,1665.83A37.57,37.57,0,0,1,1522.56,1668Zm-242.23-515.1,258.77,431.55,754.13-264.07L2029.81,949.05ZM96.54,139.23l584,1098.51,483.81-131.57L548,78.48ZM1829,535.57l231.85,326.8L2349.1,784l-250-312.2Z"/></g></g></svg>