<svg xmlns="http://www.w3.org/2000/svg" viewBox="0 0 281.57 45.06"><defs><style>.cls-1{fill:#38a8e4;}.cls-2{fill:#fff;}</style></defs><g id="Слой_2" data-name="Слой 2"><g id="Слой_3" data-name="Слой 3"><path class="cls-1" d="M19.62,43.92H16.2L0,1.2H2.58L17.94,41.64,33.3,1.2h2.52Z"/><path class="cls-1" d="M75.24,1.2V28.8A16,16,0,0,1,74,35a16.34,16.34,0,0,1-3.54,5.28,15.85,15.85,0,0,1-5.31,3.54,17,17,0,0,1-12.54,0,15.23,15.23,0,0,1-5.25-3.54,15.6,15.6,0,0,1-3.57-5.25,16.22,16.22,0,0,1-1.23-6.27V1.2h2.4V28.8A13.92,13.92,0,0,0,49,38.67a14.26,14.26,0,0,0,4.44,3,13.84,13.84,0,0,0,10.86,0,14.1,14.1,0,0,0,7.44-7.44,13.46,13.46,0,0,0,1.11-5.43V1.2Z"/><path class="cls-1" d="M85.38,3.48V1.2h25.68V3.48Zm22.8,13.08v2.28H87.78v22.8h23.28v2.28H85.38V16.56Z"/><path class="cls-2" d="M145,3.48H132.78V43.92h-2.4V3.48H118.2V1.2H145Z"/><path class="cls-2" d="M170.1,44.58a21.65,21.65,0,0,1-15.78-6.48,20.09,20.09,0,0,1-4.8-7.14,21.92,21.92,0,0,1,0-17.4,22.94,22.94,0,0,1,4.74-7.14,22.9,22.9,0,0,1,7.14-4.8A22,22,0,0,1,165.66.39,24.94,24.94,0,0,1,170.1,0a25.45,25.45,0,0,1,4.47.39,21.83,21.83,0,0,1,4.29,1.23,22.63,22.63,0,0,1,7.08,4.8,22.9,22.9,0,0,1,4.8,7.14,20.94,20.94,0,0,1,1.32,4.26,23.21,23.21,0,0,1,.42,4.44,21.66,21.66,0,0,1-1.74,8.7A22.53,22.53,0,0,1,178.86,42.9,22.78,22.78,0,0,1,170.1,44.58Zm0-42.3a19.15,19.15,0,0,0-7.77,1.59A20.15,20.15,0,0,0,151.71,14.5a19.88,19.88,0,0,0,0,15.58,20.15,20.15,0,0,0,10.62,10.63,19.78,19.78,0,0,0,15.54,0,20.82,20.82,0,0,0,6.36-4.28,19.81,19.81,0,0,0,5.85-14.14,19.81,19.81,0,0,0-5.85-14.14,20.82,20.82,0,0,0-6.36-4.28A19.15,19.15,0,0,0,170.1,2.28Z"/><path class="cls-2" d="M215,16.44v.06a6.16,6.16,0,0,0,2.49-.51A6.72,6.72,0,0,0,221,12.51a6.31,6.31,0,0,0,.51-2.55A6.16,6.16,0,0,0,221,7.47,6.72,6.72,0,0,0,217.47,4,6.16,6.16,0,0,0,215,3.48H199.5V1.2H215a8.42,8.42,0,0,1,3.39.69,8.91,8.91,0,0,1,2.79,1.88,9,9,0,0,1,1.89,2.78,8.38,8.38,0,0,1,.69,3.38,8.59,8.59,0,0,1-.69,3.41,8.8,8.8,0,0,1-1.89,2.81A8.91,8.91,0,0,1,218.37,18a8.42,8.42,0,0,1-3.39.69v-.06H201.9V43.92h-2.4V16.44Z"/><path class="cls-2" d="M236.16,43.92h-2.4V1.2h2.4Z"/><path class="cls-2" d="M263.57,3.9l-15.35,40h-2.58L262.07,1.2h3.07l16.43,42.72H279Z"/></g></g></svg>