<svg xmlns="http://www.w3.org/2000/svg" viewBox="0 0 429 69"><defs><style>.cls-1{fill:#fff;fill-rule:evenodd;}</style></defs><g id="Слой_2" data-name="Слой 2"><g id="Слой_1-2" data-name="Слой 1"><g id="Page-1"><g id="Artboard"><g id="header"><g id="Group"><g id="october-log-white"><path id="Fill-18" class="cls-1" d="M54,34.5a28.91,28.91,0,0,0-1.3-9A19.11,19.11,0,0,0,49,18.73a16.26,16.26,0,0,0-6-4.25,20.36,20.36,0,0,0-8-1.48A20.7,20.7,0,0,0,27,14.48a16.13,16.13,0,0,0-6,4.25,19.14,19.14,0,0,0-3.73,6.78,29.22,29.22,0,0,0-1.29,9,29.41,29.41,0,0,0,1.29,9A19.23,19.23,0,0,0,21,50.32a15.84,15.84,0,0,0,6,4.22A20.89,20.89,0,0,0,35.05,56a20.55,20.55,0,0,0,8-1.46,16,16,0,0,0,6-4.22,19.2,19.2,0,0,0,3.71-6.78,29.1,29.1,0,0,0,1.3-9m16,0A36.33,36.33,0,0,1,67.48,48.1,32.2,32.2,0,0,1,49.36,66.36,37.46,37.46,0,0,1,35,69a37.66,37.66,0,0,1-14.33-2.64,32.87,32.87,0,0,1-11.07-7.3,32.49,32.49,0,0,1-7.12-11A36.33,36.33,0,0,1,0,34.48,36.35,36.35,0,0,1,2.52,20.85,32.41,32.41,0,0,1,9.64,9.91,33,33,0,0,1,20.71,2.64,37.66,37.66,0,0,1,35,0,37.09,37.09,0,0,1,49.36,2.66a33,33,0,0,1,11,7.3,32.51,32.51,0,0,1,7.1,10.94A36.24,36.24,0,0,1,70,34.48"/><path id="Fill-19" class="cls-1" d="M113,50.33a15.7,15.7,0,0,1-5.82,4.24A20,20,0,0,1,99.34,56a20.23,20.23,0,0,1-7.9-1.45,15.57,15.57,0,0,1-5.85-4.24,19.26,19.26,0,0,1-3.65-6.8,29.8,29.8,0,0,1-1.27-9.05,29.74,29.74,0,0,1,1.27-9,19.22,19.22,0,0,1,3.65-6.79,15.73,15.73,0,0,1,5.85-4.26,19.87,19.87,0,0,1,7.9-1.49,19.64,19.64,0,0,1,7.84,1.49A15.87,15.87,0,0,1,113,18.67a17,17,0,0,1,2,3c1.14,2.1,4,1.85,4,1.85h13c-.27-.88-.54-1.75-.88-2.6a32.76,32.76,0,0,0-7-10.94,32.29,32.29,0,0,0-10.81-7.3A35.64,35.64,0,0,0,99.34,0a36.17,36.17,0,0,0-14,2.64A32.24,32.24,0,0,0,74.44,9.91a32.59,32.59,0,0,0-7,10.94A36.93,36.93,0,0,0,65,34.48,36.92,36.92,0,0,0,67.47,48.1a32.58,32.58,0,0,0,7,11,32.17,32.17,0,0,0,10.86,7.3,38.6,38.6,0,0,0,28.06,0,31.86,31.86,0,0,0,10.81-7.3,32.84,32.84,0,0,0,7-11c.34-.85.61-1.72.88-2.6H119a4.48,4.48,0,0,0-4.29,2.13,16.52,16.52,0,0,1-1.75,2.7"/><path id="Fill-20" class="cls-1" d="M208,34.5a29.22,29.22,0,0,0-1.29-9A19.28,19.28,0,0,0,203,18.73a16.26,16.26,0,0,0-6-4.25,20.36,20.36,0,0,0-8-1.48A20.67,20.67,0,0,0,181,14.48a16.13,16.13,0,0,0-6,4.25,19.14,19.14,0,0,0-3.73,6.78,29.22,29.22,0,0,0-1.29,9,29.41,29.41,0,0,0,1.29,9A19.23,19.23,0,0,0,175,50.32a15.84,15.84,0,0,0,6,4.22A20.85,20.85,0,0,0,189.05,56a20.55,20.55,0,0,0,8-1.46,16,16,0,0,0,6-4.22,19.37,19.37,0,0,0,3.72-6.78,29.41,29.41,0,0,0,1.29-9m16,0a36.33,36.33,0,0,1-2.52,13.62,32.18,32.18,0,0,1-18.13,18.26,40.16,40.16,0,0,1-28.64,0A32.2,32.2,0,0,1,156.52,48.1,36.33,36.33,0,0,1,154,34.48a36.35,36.35,0,0,1,2.52-13.63,32.41,32.41,0,0,1,7.12-10.94,32.75,32.75,0,0,1,11.07-7.27A37.62,37.62,0,0,1,189,0a37,37,0,0,1,14.31,2.66,32.94,32.94,0,0,1,11,7.3,32.66,32.66,0,0,1,7.1,10.94A36.24,36.24,0,0,1,224,34.48"/><path id="Fill-21" class="cls-1" d="M241,40V57h11a13.59,13.59,0,0,0,5-.8,7.93,7.93,0,0,0,3.06-2.06,7,7,0,0,0,1.52-2.86,13,13,0,0,0,.41-3.22,11.08,11.08,0,0,0-.48-3.38,5.55,5.55,0,0,0-1.66-2.52,8.07,8.07,0,0,0-3.11-1.6,18,18,0,0,0-4.88-.56Zm0-10h8a24.61,24.61,0,0,0,4.59-.38,9.29,9.29,0,0,0,3.48-1.32,5.93,5.93,0,0,0,2.18-2.6,10,10,0,0,0,.75-4.15,12,12,0,0,0-.59-4.09,5.89,5.89,0,0,0-1.82-2.62,7.5,7.5,0,0,0-3.11-1.41A20.19,20.19,0,0,0,250,13h-9ZM225,69V1h24.71a46.51,46.51,0,0,1,11.85,1.31,22.24,22.24,0,0,1,8,3.69,13.92,13.92,0,0,1,4.5,5.78,19.73,19.73,0,0,1,1.41,7.61,15.14,15.14,0,0,1-.65,4.41,13,13,0,0,1-2,4,15.14,15.14,0,0,1-3.55,3.38A22.84,22.84,0,0,1,264,33.81q6.64,1.63,9.82,5.3a13.81,13.81,0,0,1,3.18,9.4,19.56,19.56,0,0,1-1.66,8.07,18.59,18.59,0,0,1-4.86,6.52,22.79,22.79,0,0,1-7.91,4.33A33.72,33.72,0,0,1,251.83,69Z"/><polygon id="Fill-22" class="cls-1" points="323 1 323 13.13 295.59 13.13 295.59 29 316.58 29 316.58 40.67 295.59 40.67 295.59 56.87 323 56.87 323 69 280 69 280 1 323 1"/><path id="Fill-23" class="cls-1" d="M343,33h6.25a15.85,15.85,0,0,0,5.39-.81A9.86,9.86,0,0,0,358.29,30a8.74,8.74,0,0,0,2.07-3.36,13.27,13.27,0,0,0,.64-4.15,8.72,8.72,0,0,0-2.87-6.94c-1.92-1.67-4.87-2.5-8.88-2.5H343Zm-.41,10.85V69H327V1h21.87a44.52,44.52,0,0,1,12.44,1.52,23.27,23.27,0,0,1,8.39,4.22,16.09,16.09,0,0,1,4.73,6.39,21.32,21.32,0,0,1,1.48,8,21.67,21.67,0,0,1-.88,6.26,19,19,0,0,1-2.6,5.43,20.36,20.36,0,0,1-4.25,4.46,22.49,22.49,0,0,1-5.79,3.22,14.84,14.84,0,0,1,2.93,2,12,12,0,0,1,2.38,2.85L382,69H367.88a6,6,0,0,1-5.63-3L351.09,46.27a4.88,4.88,0,0,0-1.74-1.87,5.75,5.75,0,0,0-2.79-.55Z"/><path id="Fill-24" class="cls-1" d="M136.2,1V28.26H118.84A2.78,2.78,0,0,0,116,31v8a2.77,2.77,0,0,0,2.84,2.71H136.2V69H152V1Z"/><path id="Fill-25" class="cls-1" d="M429,33.05C427.86,15.43,408.49.17,400.51,0S377.62,18.5,377,37.47c-.57,17.79,14.74,30,21.33,31.53.18-8.37.86-39.18,1-42.77.24-7.34.61-18.76,1.84-19.14.71-.22,1.68,6.2,1.56,10,0,.73,0,3.07,0,6.4,1.33-1.34,2.73-2.74,3.57-3.57,2.32-2.26,3.35-2,2.24,0-.69,1.24-3.64,5.37-5.81,8.36,0,6,0,13.63.07,20.7,3.06-3.55,6.82-7.81,8.78-9.7,4.14-4,4.58-3.47,2.62.69-1.19,2.56-7.05,9.37-11.38,14.75,0,6.28.05,11.55.06,14.08C414.44,66.29,430,50.36,429,33.05"/></g></g></g></g></g></g></g></svg>