<svg xmlns="http://www.w3.org/2000/svg" viewBox="0 0 24 24"><defs><style>.cls-1{fill:#fff;}</style></defs><g id="Слой_2" data-name="Слой 2"><g id="icons"><path class="cls-1" d="M21.26,15H16.74a2.91,2.91,0,0,0-2.21.57A1.9,1.9,0,0,0,14,16.93,8,8,0,0,1,7.07,10a1.9,1.9,0,0,0,1.36-.52A2.91,2.91,0,0,0,9,7.26V2.74A2.91,2.91,0,0,0,8.43.53,1.94,1.94,0,0,0,7,0H3A3,3,0,0,0,0,3V7A17,17,0,0,0,17,24h4a3,3,0,0,0,3-3V17a1.94,1.94,0,0,0-.53-1.43A3,3,0,0,0,21.26,15ZM22,21a1,1,0,0,1-1,1H17A15,15,0,0,1,2,7V3A1,1,0,0,1,3,2H7a5.72,5.72,0,0,1,0,.73V7.27A5.72,5.72,0,0,1,7,8H5V9A10,10,0,0,0,15,19h1V17a5.72,5.72,0,0,1,.73,0h4.54A5.72,5.72,0,0,1,22,17Z"/><circle class="cls-1" cx="13" cy="9" r="1"/><circle class="cls-1" cx="17" cy="9" r="1"/><circle class="cls-1" cx="21" cy="9" r="1"/></g></g></svg>