<?xml version="1.0" encoding="utf-8"?>
<!-- Generator: Adobe Illustrator 19.2.1, SVG Export Plug-In . SVG Version: 6.00 Build 0)  -->
<svg version="1.1" id="layer" xmlns="http://www.w3.org/2000/svg" xmlns:xlink="http://www.w3.org/1999/xlink" x="0px" y="0px"
	 viewBox="0 0 652 652" style="enable-background:new 0 0 652 652;" xml:space="preserve">
<style type="text/css">
	.st0{fill:#231815;}
</style>
<g>
	<path class="st0" d="M25.7,279.2h49.6v28.5c8.1-19.3,21.1-31.9,44.6-30.8V329h-4.2c-25.8,0-40.5,14.9-40.5,47.5v43.9H25.7V279.2z"
		/>
	<path class="st0" d="M318.3,403.2v17.2h-49.6V229.8h49.6V298C328,286.2,340,276,361.2,276c33.7,0,62.7,27.9,62.7,73.1v0.5
		c0,46-29,73.9-62.4,73.9C340,423.5,327.5,413.9,318.3,403.2 M375,349.9v-0.5c0-18.5-12.8-31.8-29-31.8c-15.9,0-28.7,13.3-28.7,31.8
		v0.5c0,18.8,12.8,32.1,28.7,32.1C362.2,382,375,369,375,349.9"/>
	<rect x="576.1" y="229.8" class="st0" width="49.6" height="190.6"/>
	<path class="st0" d="M263.2,353.3c0-41.5-22.5-77.3-71.3-77.3c-41.8,0-71.3,32.6-71.3,73.9v0.5c0,43.9,31.3,73.4,75.7,73.4
		c28.2,0,47.8-11.5,61.3-28.7l-27.4-22.7c-10.2,9.9-19.6,14.4-31.3,14.4c-15.4,0-26.6-7.8-30.5-23.2h94.5
		C263.2,360.1,263.2,356.4,263.2,353.3 M192.2,312.6c12.7,0,21.6,8.8,24.1,22.8h-48.1C171.4,321.6,179.9,312.6,192.2,312.6"/>
	<path class="st0" d="M499.5,276c-48.8,0-71.3,35.8-71.3,77.3c0,3.1,0,6.8,0.3,10.2H523c-3.9,15.4-15.1,23.2-30.5,23.2
		c-11.7,0-21.2-4.4-31.3-14.4l-27.4,22.7c13.6,17.2,33.2,28.7,61.3,28.7c44.4,0,75.7-29.5,75.7-73.4v-0.5
		C570.7,308.7,541.2,276,499.5,276 M499.2,312.6c12.2,0,20.8,9,24,22.8h-48.1C477.6,321.3,486.4,312.6,499.2,312.6"/>
</g>
</svg>
